HIERARCHY
ROOT Hips
{
	OFFSET -3.958830 18.904000 13.208200
	CHANNELS 6 Xposition Yposition Zposition Zrotation Yrotation Xrotation 
	JOINT LHipJoint
	{
		OFFSET 0.000000 0.000000 0.000000
		CHANNELS 3 Zrotation Yrotation Xrotation
		JOINT LeftUpLeg
		{
			OFFSET 1.800000 -1.400000 0.085000
			CHANNELS 3 Zrotation Yrotation Xrotation
			JOINT LeftLeg
			{
				OFFSET 2.215000 -6.000000 0.000000
				CHANNELS 3 Zrotation Yrotation Xrotation
				JOINT LeftFoot
				{
					OFFSET 2.500000 -6.900000 0.000000
					CHANNELS 3 Zrotation Yrotation Xrotation
					JOINT LeftToeBase
					{
						OFFSET 0.200000 -0.500000 1.950000
						CHANNELS 3 Zrotation Yrotation Xrotation
						End Site
						{
							OFFSET 0.000000 0.000000 0.000000
						}
					}
				}
			}
		}
	}
	JOINT RHipJoint
	{
		OFFSET 0.000000 0.000000 0.000000
		CHANNELS 3 Zrotation Yrotation Xrotation
		JOINT RightUpLeg
		{
			OFFSET -1.800000 -1.400000 0.085000
			CHANNELS 3 Zrotation Yrotation Xrotation
			JOINT RightLeg
			{
				OFFSET -2.215000 -6.000000 0.000000
				CHANNELS 3 Zrotation Yrotation Xrotation
				JOINT RightFoot
				{
					OFFSET -2.500000 -6.900000 0.000000
					CHANNELS 3 Zrotation Yrotation Xrotation
					JOINT RightToeBase
					{
						OFFSET -0.200000 -0.500000 1.950000
						CHANNELS 3 Zrotation Yrotation Xrotation
						End Site
						{
							OFFSET 0.000000 0.000000 0.000000
						}
					}
				}
			}
		}
	}
	JOINT LowerBack
	{
		OFFSET 0.000000 0.000000 0.000000
		CHANNELS 3 Zrotation Yrotation Xrotation
		JOINT Spine
		{
			OFFSET -0.087000 1.940000 -0.288900
			CHANNELS 3 Zrotation Yrotation Xrotation
			JOINT Spine1
			{
				OFFSET 0.000000 1.950000 0.060000
				CHANNELS 3 Zrotation Yrotation Xrotation
				JOINT Neck
				{
					OFFSET 0.000000 0.000000 0.000000
					CHANNELS 3 Zrotation Yrotation Xrotation
					JOINT Neck1
					{
						OFFSET 0.000000 1.600000 0.340000
						CHANNELS 3 Zrotation Yrotation Xrotation
						JOINT Head
						{
							OFFSET 0.000000 1.667000 -0.240000
							CHANNELS 3 Zrotation Yrotation Xrotation
							End Site
							{
								OFFSET 0.000000 0.000000 0.000000
							}
						}
					}
				}
				JOINT LeftShoulder
				{
					OFFSET 0.000000 0.000000 0.000000
					CHANNELS 3 Zrotation Yrotation Xrotation
					JOINT LeftArm
					{
						OFFSET 2.700000 1.550000 -0.730000
						CHANNELS 3 Zrotation Yrotation Xrotation
						JOINT LeftForeArm
						{
							OFFSET 5.450000 0.000000 0.000000
							CHANNELS 3 Zrotation Yrotation Xrotation
							JOINT LeftHand
							{
								OFFSET 3.450000 0.000000 0.000000
								CHANNELS 3 Zrotation Yrotation Xrotation
								JOINT LeftHandIndex1
								{
									OFFSET 0.750000 0.000000 0.000000
									CHANNELS 3 Zrotation Yrotation Xrotation
									End Site
									{
										OFFSET 0.000000 0.000000 0.000000
									}
								}
							}
						}
					}
				}
				JOINT RightShoulder
				{
					OFFSET 0.000000 0.000000 0.000000
					CHANNELS 3 Zrotation Yrotation Xrotation
					JOINT RightArm
					{
						OFFSET -2.700000 1.550000 -0.730000
						CHANNELS 3 Zrotation Yrotation Xrotation
						JOINT RightForeArm
						{
							OFFSET -5.450000 0.000000 0.000000
							CHANNELS 3 Zrotation Yrotation Xrotation
							JOINT RightHand
							{
								OFFSET -3.450000 0.000000 0.000000
								CHANNELS 3 Zrotation Yrotation Xrotation
								JOINT RightHandIndex1
								{
									OFFSET -0.750000 0.000000 0.000000
									CHANNELS 3 Zrotation Yrotation Xrotation
									End Site
									{
										OFFSET 0.000000 0.000000 0.000000
									}
								}
							}
						}
					}
				}
			}
		}
	}
}
MOTION
Frames: 13
Frame Time: 0.016667
0.004160 15.984600 -5.485720 -7.683127 -14.020752 -2.200321 -15.712252 11.362751 5.708167 41.520524 -2.302258 -25.250121 -24.338922 22.605825 38.510143 0.929856 11.435671 0.504978 0.478090 0.177120 0.445540 18.243295 -8.400240 2.925443 -18.106229 5.889547 -34.768143 9.799518 -15.046144 50.901899 -1.441339 -8.016093 1.509896 -0.114820 -0.217300 0.208490 -2.945911 -3.134117 -9.608384 -2.321285 -3.415980 44.486988 -3.069035 -1.274424 -14.171266 2.842978 -6.959997 -10.319001 -16.194611 6.483369 33.381122 1.844800 4.763820 -40.352070 -23.116735 -4.073679 1.045041 -28.089376 4.839770 -7.221815 -56.550459 -31.115914 11.600750 -3.114039 3.227857 1.039430 -0.450440 0.466450 0.123830 19.025114 9.417519 7.353221 45.225852 -10.843400 -12.956483 6.618257 20.552676 0.536021 2.296396 -0.843250 -0.055120 0.218100 -0.093300 -0.262340 
-0.060630 15.931010 -5.525620 -7.796167 -12.940066 -2.878261 -15.755794 11.217339 5.821075 42.747839 -2.015118 -26.343579 -23.975839 23.225600 40.023552 0.984121 11.629189 0.435551 0.486840 0.185100 0.453390 18.248318 -8.227359 2.987093 -18.531543 6.330670 -34.932183 10.627417 -16.229905 52.944965 -1.579619 -8.521167 1.352895 -0.126180 -0.252860 0.213400 -2.912607 -3.172863 -9.730935 -2.930715 -2.990833 46.826516 -2.377778 -0.711005 -15.155982 3.029809 -7.034891 -11.092279 -16.529581 6.213631 33.847995 2.249940 4.613520 -41.208850 -23.046720 -5.226330 1.744403 -27.126280 6.315826 -7.640909 -59.691047 -33.542422 13.655459 -3.075866 3.271007 1.058070 -0.479710 0.488900 0.116220 18.797264 11.108742 8.058735 43.831153 -10.742235 -12.163510 4.716519 19.037770 0.499422 2.320754 -0.833903 -0.036720 0.190790 -0.101810 -0.265420 
-0.122180 15.875590 -5.551620 -7.872147 -11.653533 -3.203172 -15.799012 11.028962 5.941015 43.878478 -1.730679 -27.748001 -23.684891 23.854632 41.496545 1.036004 11.818674 0.359858 0.511730 0.208380 0.463230 18.260863 -8.027818 3.074388 -19.322151 6.590771 -35.460331 11.669340 -17.692049 54.886230 -1.730460 -9.087806 1.167944 -0.127230 -0.291710 0.243060 -2.889419 -3.194741 -9.859087 -3.049011 -2.704450 48.309005 -2.154924 -0.229022 -15.728137 3.300568 -6.891312 -11.645530 -16.145148 5.649539 33.693484 2.348170 4.467110 -41.663650 -23.078962 -6.220005 2.235495 -26.296827 7.314958 -7.975966 -61.815974 -35.993286 15.643765 -3.043137 3.348219 1.065250 -0.498160 0.513650 0.117130 18.408060 12.432514 8.607511 42.334163 -10.402960 -11.117175 4.043480 16.291071 0.472029 2.363617 -0.850978 -0.003360 0.135920 -0.116900 -0.265140 
-0.179490 15.817760 -5.562930 -7.831229 -10.367520 -3.577297 -15.833525 10.887322 6.031025 44.738690 -1.455229 -28.883795 -23.296853 24.348244 42.766988 1.079693 11.963911 0.306102 0.528890 0.230540 0.474360 18.269390 -7.868955 3.138983 -20.184339 6.641755 -35.784506 12.509451 -19.090404 56.642681 -1.862707 -9.602392 1.008663 -0.125100 -0.319250 0.252720 -2.862549 -3.237873 -9.964413 -2.885134 -2.542892 48.886040 -2.132146 0.093502 -15.620234 3.535935 -6.837786 -12.108239 -16.103042 5.124636 33.865668 2.190120 4.146020 -41.515550 -23.175606 -7.148415 2.579364 -25.989340 7.647111 -8.245446 -62.702519 -37.662212 16.861336 -3.020991 3.386707 1.060070 -0.509240 0.526400 0.113090 18.086276 13.648915 9.118570 41.054319 -9.980620 -10.170909 3.125745 13.747321 0.436497 2.406545 -0.860643 0.020900 0.104680 -0.129000 -0.263410 
-0.231660 15.762530 -5.564100 -7.651168 -9.285788 -4.177783 -15.856951 10.819582 6.063384 45.140725 -1.232476 -29.650767 -22.502785 24.683298 44.168629 1.091192 12.100426 0.260054 0.531610 0.228830 0.486690 18.269501 -7.770608 3.187149 -21.056475 6.584540 -35.824066 13.048562 -20.340665 58.353389 -1.978144 -10.066887 0.872815 -0.121490 -0.329040 0.247060 -2.829148 -3.290048 -10.044486 -2.604005 -2.282049 48.809315 -2.242304 0.441625 -14.907399 3.740074 -6.702793 -12.536280 -16.188212 4.673961 34.893993 1.873890 3.722420 -40.781700 -23.297464 -8.154679 2.806768 -26.210193 7.339889 -8.481830 -62.234139 -38.462506 17.064746 -3.015858 3.369655 1.066820 -0.511090 0.527850 0.104720 17.791342 14.822680 9.673404 40.075697 -9.741092 -9.420306 2.081532 11.498056 0.430192 2.431598 -0.852156 0.015870 0.106360 -0.127220 -0.273510 
-0.278910 15.714160 -5.555580 -7.472252 -8.480828 -4.887821 -15.875884 10.812404 6.066006 45.305046 -0.984692 -30.050566 -21.561740 24.912619 45.493647 1.077916 12.248046 0.219725 0.509350 0.184430 0.498140 18.260019 -7.718338 3.209413 -21.674618 6.561679 -35.547651 13.335788 -21.314371 59.794911 -2.058879 -10.432267 0.774735 -0.125990 -0.316000 0.229890 -2.785030 -3.352108 -10.103622 -2.145027 -2.003823 48.255715 -2.495250 0.846519 -13.873502 4.009878 -6.483357 -12.990918 -16.256971 4.243085 36.438453 1.030560 3.218680 -39.179070 -23.672398 -9.226042 3.029507 -26.592308 7.089477 -8.739323 -61.361444 -39.288047 17.103573 -3.033784 3.311448 1.080160 -0.497110 0.510260 0.088700 17.573615 16.026215 10.281619 39.041401 -9.599904 -8.726915 1.549213 9.330695 0.457977 2.443672 -0.823429 -0.020530 0.136160 -0.105470 -0.297940 
-0.331590 15.675210 -5.540520 -7.102754 -7.574134 -5.543847 -15.885572 10.836613 6.038050 45.137722 -0.823483 -30.396685 -20.409518 24.914061 46.641339 1.010453 12.372551 0.190788 0.456410 0.091310 0.500750 18.247868 -7.715912 3.222060 -22.231444 6.459312 -35.187081 13.392304 -22.068183 61.027451 -2.096692 -10.726854 0.709906 -0.139300 -0.270220 0.188510 -2.743166 -3.380621 -10.142984 -1.884717 -1.652132 47.126048 -2.729989 1.206850 -12.637883 4.182727 -6.079490 -13.451647 -15.966147 3.821693 38.208946 0.207970 2.707520 -36.663760 -24.177272 -10.407792 3.325245 -27.097276 7.022557 -9.029303 -60.139842 -40.430340 17.166334 -3.076637 3.210907 1.103640 -0.463230 0.456660 0.060200 17.627405 17.135448 10.881386 38.097458 -9.664821 -8.171357 1.395161 7.580318 0.484789 2.427959 -0.772641 -0.100750 0.198900 -0.056020 -0.341010 
-0.386500 15.644450 -5.512740 -6.716653 -6.543637 -6.281033 -15.873151 10.892453 5.975010 44.722770 -0.726029 -30.576522 -18.975977 24.691133 47.802556 0.941981 12.444338 0.165124 0.418860 0.027350 0.495010 18.244724 -7.788075 3.196339 -22.604829 6.292281 -34.365499 13.336426 -22.622220 61.980621 -2.127760 -10.945915 0.648678 -0.141740 -0.228540 0.163720 -2.741772 -3.348936 -10.131438 -1.535790 -1.494758 45.951919 -3.122898 1.455407 -11.517104 4.166540 -5.976374 -13.556248 -16.067400 3.811716 39.339678 0.308560 2.322340 -35.093780 -24.582805 -10.827438 3.302701 -27.710670 6.567561 -9.152589 -58.861694 -41.190300 17.040578 -3.116742 3.143639 1.121470 -0.440690 0.417810 0.038910 17.927600 17.522191 11.136782 37.105236 -9.464546 -7.640751 1.649955 6.068513 0.488471 2.421059 -0.731560 -0.160000 0.249930 -0.009500 -0.366300 
-0.440670 15.617110 -5.472190 -6.302426 -5.355409 -7.139995 -15.846608 10.988430 5.867018 44.024991 -0.723761 -30.598076 -17.213335 24.199497 48.978589 0.893974 12.451683 0.161910 0.407920 -0.003990 0.501130 18.242457 -7.912552 3.155005 -23.032407 5.997315 -33.138175 13.424494 -23.200370 62.687472 -2.172423 -11.136509 0.581649 -0.138340 -0.193260 0.161590 -2.757988 -3.298796 -10.086514 -1.170228 -1.424493 44.638396 -3.556504 1.621271 -10.321921 4.059455 -5.955006 -13.528163 -16.283805 4.106831 40.406555 1.134480 2.072370 -33.739580 -24.878764 -10.929487 3.202333 -28.653307 5.961398 -9.285460 -57.580809 -41.874507 16.857434 -3.145252 3.111158 1.129390 -0.427900 0.401540 0.034730 18.281952 17.554723 11.245583 36.080418 -9.265905 -7.196763 2.524632 4.995862 0.441582 2.426218 -0.709946 -0.189450 0.283540 0.013850 -0.372450 
-0.496930 15.592200 -5.426880 -5.987965 -4.175435 -7.831854 -15.819610 11.083646 5.763144 43.401900 -0.626231 -30.687074 -15.336143 23.618217 50.076718 0.845138 12.428999 0.167840 0.404950 -0.025260 0.500640 18.240845 -8.039792 3.112650 -23.231689 5.761351 -31.889692 13.582036 -23.685723 63.102352 -2.200040 -11.285517 0.536837 -0.128870 -0.157080 0.156380 -2.778705 -3.237461 -10.042440 -0.582094 -1.391327 42.851006 -4.004554 1.866780 -9.017098 3.936438 -5.943089 -13.526177 -16.547216 4.431834 41.526606 1.975630 1.710900 -31.594930 -25.312851 -11.100994 3.100489 -29.671846 5.238002 -9.343560 -55.863142 -42.158709 16.301990 -3.169668 3.091457 1.124460 -0.407540 0.374700 0.039330 18.817698 17.635675 11.412264 35.009633 -9.301073 -6.797147 3.586859 4.350764 0.356896 2.418779 -0.709076 -0.214030 0.306680 0.028630 -0.375500 
-0.552650 15.566800 -5.374320 -5.974746 -3.151327 -8.435611 -15.796103 11.171069 5.671046 43.168245 -0.321352 -30.553981 -13.608040 23.032862 50.785001 0.795010 12.370084 0.180067 0.403910 -0.039250 0.496210 18.241420 -8.144908 3.074241 -23.085527 5.680663 -30.687086 13.695235 -24.201693 63.705057 -2.235712 -11.460098 0.489992 -0.116140 -0.130790 0.143450 -2.804016 -3.185035 -10.009615 0.446614 -1.503790 40.844160 -4.490648 2.137756 -7.717540 3.884562 -6.048302 -13.558475 -17.119819 4.776057 42.753669 2.643460 1.219110 -29.332900 -25.630047 -11.139061 3.010901 -30.993350 4.588735 -9.424199 -53.810158 -42.295490 15.530036 -3.186873 3.074118 1.114640 -0.391840 0.345960 0.043040 19.102572 17.708165 11.570792 34.281777 -9.342782 -6.511112 4.632821 4.049533 0.267175 2.409074 -0.715578 -0.235260 0.323330 0.039740 -0.377860 
-0.609620 15.541960 -5.326300 -6.087728 -2.317770 -8.898831 -15.773962 11.231265 5.593891 43.137631 0.096055 -30.427741 -12.038204 22.506043 51.289039 0.738066 12.310002 0.189974 0.400990 -0.055480 0.477840 18.248673 -8.224907 3.050290 -22.675717 5.746304 -29.779213 13.665412 -24.649066 64.491406 -2.265747 -11.653985 0.449135 -0.099050 -0.101600 0.121890 -2.841031 -3.116708 -9.986043 1.629888 -1.609621 38.790701 -4.922001 2.436611 -6.521101 3.810133 -6.212176 -13.573599 -17.723231 5.135039 43.684993 3.322810 0.657820 -26.708570 -25.991499 -11.129819 2.908588 -32.143846 4.049519 -9.445020 -51.928780 -42.414737 14.835837 -3.206307 3.068215 1.098470 -0.369980 0.300470 0.049250 19.482563 17.767009 11.717667 33.433177 -9.453604 -6.240418 5.812222 3.974587 0.158818 2.383972 -0.733194 -0.262010 0.336420 0.055270 -0.383980 
-0.664280 15.518780 -5.279070 -6.251177 -1.485329 -9.390200 -15.745412 11.295745 5.499260 43.057800 0.426285 -30.297454 -10.335415 21.840770 51.794422 0.685822 12.232516 0.212825 0.398520 -0.069430 0.465800 18.261091 -8.316637 3.025567 -22.191501 5.761860 -28.873313 13.615465 -25.067416 65.206159 -2.299682 -11.830294 0.403495 -0.084740 -0.064280 0.113230 -2.894262 -3.036678 -9.946243 2.894623 -1.768597 36.875918 -5.351727 2.627639 -5.397307 3.708796 -6.345952 -13.316742 -18.088446 5.325011 44.154098 3.985470 0.084930 -24.744620 -26.382259 -10.825438 2.601822 -33.338978 3.054057 -9.309207 -49.310819 -42.143907 13.753556 -3.235143 3.055806 1.081190 -0.347690 0.264530 0.056880 19.884402 17.423384 11.644576 32.423706 -9.399856 -6.043093 7.495166 4.602444 0.043231 2.355911 -0.750621 -0.283300 0.353790 0.069520 -0.381310 
